<?xml version="1.0" standalone="no"?>
<!DOCTYPE svg PUBLIC "-//W3C//DTD SVG 20010904//EN"
 "http://www.w3.org/TR/2001/REC-SVG-20010904/DTD/svg10.dtd">
<svg version="1.0" xmlns="http://www.w3.org/2000/svg"
 width="1890.000000pt" height="1890.000000pt" viewBox="0 0 1890.000000 1890.000000"
 preserveAspectRatio="xMidYMid meet">
<metadata>
Created by potrace 1.11, written by Peter Selinger 2001-2013
</metadata>
<g transform="translate(0.000000,1890.000000) scale(0.100000,-0.100000)"
fill="#000000" stroke="none">
<path d="M9015 18894 c-27 -2 -124 -8 -215 -14 -1918 -124 -3803 -866 -5305
-2089 -481 -391 -1006 -917 -1391 -1392 -1072 -1321 -1771 -2920 -2009 -4594
-73 -517 -90 -762 -90 -1355 0 -593 17 -838 90 -1355 238 -1674 937 -3273
2009 -4594 385 -475 922 -1012 1397 -1397 1321 -1072 2920 -1771 4594 -2009
517 -73 762 -90 1355 -90 593 0 838 17 1355 90 1674 238 3273 937 4594 2009
475 385 1012 922 1397 1397 1072 1321 1771 2920 2009 4594 73 517 90 762 90
1355 0 593 -17 838 -90 1355 -238 1674 -937 3273 -2009 4594 -385 475 -910
1001 -1391 1392 -1316 1072 -2923 1775 -4600 2014 -233 33 -422 54 -690 76
-125 10 -996 21 -1100 13z m1509 -1264 c219 -27 399 -50 400 -52 1 -2 -5 -59
-13 -128 l-16 -125 -293 -353 c-160 -194 -292 -354 -292 -356 0 -5 220 -29
225 -24 3 3 8 32 11 66 6 55 9 62 28 62 28 0 260 -30 264 -34 4 -5 -38 -357
-46 -382 -7 -20 -9 -20 -452 34 -245 30 -447 56 -449 58 -3 3 15 183 25 240 4
22 91 134 290 375 156 189 284 347 284 350 0 3 -42 10 -92 16 -104 12 -108 11
-108 -49 0 -20 -3 -39 -8 -41 -6 -4 -262 23 -270 28 -1 1 7 86 20 188 l22 187
35 -6 c20 -3 215 -27 435 -54z m-1487 29 c56 -27 100 -81 118 -144 7 -27 28
-243 45 -478 35 -468 35 -485 -18 -557 -31 -44 -76 -75 -128 -88 -22 -6 -148
-18 -280 -28 -207 -15 -248 -15 -290 -4 -63 18 -126 80 -147 146 -15 47 -77
780 -77 907 1 119 81 214 197 233 70 11 347 31 442 33 77 1 103 -3 138 -20z
m-1126 -172 c47 -164 47 -153 -5 -166 -31 -8 -46 -17 -46 -28 0 -22 191 -706
200 -716 4 -5 26 -3 50 3 23 6 44 9 47 6 7 -7 75 -248 71 -250 -2 -2 -99 -30
-216 -63 -142 -40 -215 -57 -217 -49 -2 6 -42 151 -90 321 -47 171 -88 317
-91 325 -4 8 -41 -121 -83 -288 l-76 -303 -223 217 c-123 119 -224 215 -226
213 -1 -2 39 -152 90 -334 81 -291 90 -331 75 -337 -24 -12 -369 -108 -384
-108 -13 0 -77 204 -77 242 0 11 13 18 41 23 22 4 42 12 45 18 4 11 -189 724
-199 733 -2 2 -25 -2 -51 -10 -35 -11 -48 -11 -51 -3 -19 54 -65 240 -61 244
3 3 95 31 206 63 l200 58 237 -230 c198 -191 239 -226 245 -211 4 10 39 153
78 317 39 165 72 301 73 301 10 7 394 113 401 111 5 -1 22 -46 37 -99z m3899
-113 l270 -76 0 -33 c0 -18 -18 -243 -40 -499 -22 -256 -40 -479 -40 -495 0
-26 4 -31 35 -37 19 -3 38 -10 41 -15 5 -9 -54 -239 -65 -250 -3 -4 -96 19
-206 51 -145 41 -201 61 -203 73 -2 9 6 80 17 158 12 78 20 144 17 146 -5 6
-209 63 -213 60 -2 -3 -30 -69 -119 -283 -3 -7 -73 8 -205 46 -110 32 -202 60
-204 62 -2 2 12 60 32 130 l35 126 46 -13 c25 -8 47 -13 49 -11 1 1 106 212
233 469 126 257 234 467 240 467 6 0 132 -34 280 -76z m1300 -499 c168 -76
308 -140 312 -144 5 -4 -134 -335 -146 -349 -2 -1 -43 16 -92 39 -49 23 -113
52 -141 65 l-53 23 20 46 c11 26 20 50 20 54 0 10 -189 96 -196 89 -12 -12
-305 -681 -302 -690 3 -9 170 -88 187 -88 5 0 31 51 59 113 l50 112 -46 24
c-26 13 -48 24 -50 26 -2 2 96 226 102 233 7 6 396 -173 396 -183 0 -5 -70
-168 -156 -362 l-157 -352 -51 23 c-345 155 -576 262 -599 278 -75 53 -109
142 -89 235 15 71 333 791 376 853 21 28 52 55 86 73 91 48 115 42 470 -118z
m-6935 -367 c171 -226 316 -413 322 -415 7 -3 27 4 46 16 l33 20 57 -115 c31
-63 57 -119 57 -124 0 -5 -85 -53 -189 -105 l-190 -95 -87 128 c-48 70 -89
129 -91 131 -3 4 -203 -90 -203 -96 0 -1 23 -66 50 -145 28 -78 49 -147 46
-153 -4 -11 -365 -200 -370 -194 -6 7 -116 228 -116 234 0 2 18 14 41 25 36
19 40 24 34 48 -4 15 -67 242 -141 506 -74 263 -134 480 -134 482 0 4 511 263
520 263 3 0 145 -185 315 -411z m7939 -222 c176 -129 333 -247 348 -262 61
-65 75 -163 34 -250 -13 -27 -58 -99 -101 -158 -64 -89 -86 -112 -122 -128
-46 -20 -94 -18 -145 8 -41 21 -41 18 -3 -37 65 -95 59 -138 -40 -277 -36 -50
-65 -94 -65 -99 0 -4 16 -18 35 -31 19 -12 35 -27 35 -32 0 -13 -142 -210
-151 -210 -8 0 -233 163 -268 194 -13 11 -30 36 -37 54 -20 45 -9 67 130 261
65 90 119 169 121 175 4 11 -146 126 -164 126 -5 0 -78 -96 -162 -214 l-152
-214 -111 81 c-61 44 -146 106 -188 137 l-78 57 76 106 c42 59 78 107 81 107
4 0 21 -12 40 -26 18 -14 38 -24 43 -22 5 2 107 140 226 307 l217 305 -41 34
-41 34 75 104 c42 57 78 104 81 104 3 0 150 -105 327 -234z m-9236 -53 c40
-51 72 -96 72 -100 0 -4 -16 -22 -36 -38 l-36 -30 316 -405 c174 -223 316
-407 315 -410 0 -3 -59 -51 -130 -108 l-130 -103 -336 146 c-185 80 -338 144
-340 142 -2 -2 85 -117 192 -255 108 -138 194 -256 191 -261 -3 -5 -80 -68
-171 -140 l-165 -130 -73 92 c-100 125 -96 115 -51 152 29 25 36 36 28 46 -74
97 -440 567 -448 577 -9 9 -19 6 -46 -18 -19 -16 -38 -29 -42 -30 -7 0 -73 81
-141 171 l-27 36 157 124 c86 68 165 130 174 137 15 10 66 -9 354 -134 185
-80 338 -144 340 -142 2 1 -86 118 -196 258 -109 140 -195 258 -191 262 39 38
338 266 343 260 3 -4 38 -48 77 -99z m3242 -1573 l0 -1180 -1215 0 -1215 0 0
649 0 650 118 77 c325 214 424 274 687 410 443 229 948 418 1425 533 164 39
162 38 183 40 16 1 17 -61 17 -1179z m2980 1109 c313 -83 647 -199 945 -329
125 -54 436 -209 540 -269 277 -158 440 -262 652 -415 l112 -81 1 -597 0 -598
-1190 0 -1190 0 0 1160 c0 638 3 1160 8 1160 4 0 59 -14 122 -31z m4144 -388
l346 -334 -42 -46 c-23 -25 -86 -93 -141 -150 l-99 -103 -96 93 c-54 51 -101
97 -106 100 -5 4 13 33 40 65 l49 57 -74 68 c-40 38 -76 69 -81 69 -4 0 -45
-39 -90 -87 l-82 -86 98 -98 97 -98 -72 -80 c-40 -45 -77 -81 -81 -81 -4 0
-51 41 -105 92 l-96 91 -85 -84 c-123 -121 -121 -111 -33 -191 41 -37 77 -68
80 -68 3 0 31 26 61 58 l56 58 113 -107 114 -107 -54 -58 c-30 -33 -99 -105
-153 -161 l-99 -102 -352 340 c-194 188 -353 344 -354 347 -1 4 38 50 87 102
l89 95 34 -34 c20 -18 40 -32 46 -30 6 2 125 125 266 274 l255 269 -36 37 -37
38 89 95 c49 53 92 95 96 93 3 -1 162 -152 352 -336z m-11517 -115 l83 -80
-37 -38 -37 -38 200 -192 c109 -106 233 -225 274 -265 l76 -72 37 36 37 37 93
-89 c52 -50 94 -93 93 -96 -2 -12 -380 -409 -389 -409 -6 0 -51 40 -101 90
l-91 89 33 33 c17 19 32 38 32 42 0 7 -117 123 -458 450 l-82 80 -38 -37 -37
-36 -93 91 c-51 50 -91 94 -90 98 2 4 88 97 193 208 156 165 192 198 205 189
8 -6 52 -47 97 -91z m12329 -783 c137 -175 257 -335 267 -356 44 -86 27 -194
-41 -264 -65 -67 -222 -182 -257 -189 -47 -8 -87 3 -134 37 -23 16 -43 29 -45
29 -2 0 4 -23 15 -50 25 -66 24 -107 -4 -152 -27 -44 -234 -213 -297 -241 -85
-40 -197 -20 -257 45 -43 46 -513 653 -510 660 1 3 47 42 102 86 l99 79 29
-36 c16 -20 35 -36 41 -35 17 2 586 454 586 466 0 5 -11 24 -25 42 -14 18 -25
36 -25 39 0 8 190 157 200 157 4 0 120 -143 256 -317z m-12848 174 c67 -34
702 -537 734 -581 52 -72 60 -164 22 -239 -34 -66 -505 -668 -517 -660 -7 4
-54 40 -105 81 -58 46 -90 78 -85 85 3 7 17 26 30 43 l23 31 -292 229 c-161
126 -296 231 -301 233 -6 2 -24 -14 -42 -35 l-32 -38 -102 79 c-55 44 -100 83
-99 87 5 12 450 590 487 631 77 86 178 105 279 54z m2262 -2632 l0 -1215
-1184 0 -1183 0 24 108 c156 715 494 1504 919 2150 l113 172 656 0 655 0 0
-1215z m5280 265 l0 -950 -375 0 -375 0 0 -265 0 -265 -830 0 -830 0 0 1215 0
1215 1205 0 1205 0 0 -950z m1732 -4202 l3 -2993 203 -3 202 -2 0 -270 0 -270
-515 0 -515 0 0 216 0 217 -74 -70 c-290 -276 -656 -460 -1066 -535 -173 -32
-504 -32 -685 1 -896 159 -1573 863 -1701 1768 -18 128 -20 400 -4 528 46 374
178 699 405 1004 327 438 832 735 1372 806 132 17 391 20 513 5 384 -48 755
-205 1048 -443 l82 -68 0 1236 0 1235 -740 0 -740 0 0 315 0 315 1105 0 1105
0 2 -2992z m-4362 1287 l0 -1195 -1215 0 -1215 0 0 1195 0 1195 1215 0 1215 0
0 -1195z m-2650 -2645 l0 -1220 -594 0 -594 0 -69 93 c-95 126 -301 441 -370
567 -17 30 -54 98 -83 150 -241 435 -435 923 -581 1460 -21 79 -39 150 -39
157 0 11 223 13 1165 13 l1165 0 0 -1220z m-1618 -1685 c62 -80 114 -149 116
-154 1 -4 -77 -69 -173 -145 -97 -76 -174 -140 -172 -142 2 -2 115 19 252 46
137 27 249 49 250 47 1 -1 42 -54 92 -118 l91 -115 -76 -60 c-109 -85 -101
-83 -137 -39 l-32 37 -137 -15 c-75 -8 -139 -17 -142 -20 -3 -3 22 -40 56 -82
33 -43 60 -81 58 -85 -2 -5 -70 -61 -153 -125 -82 -64 -151 -121 -153 -126 -2
-5 8 -23 21 -41 l26 -32 -87 -68 c-48 -37 -89 -68 -93 -68 -5 0 -240 296 -247
310 -1 4 74 66 168 139 110 87 167 137 162 145 -23 37 -96 126 -103 126 -5 0
-84 -59 -176 -131 -134 -105 -168 -128 -178 -117 -20 22 -235 297 -235 301 0
4 146 118 167 131 8 4 24 -6 41 -25 l28 -32 190 148 c104 82 220 173 257 203
l68 54 -26 35 c-15 19 -25 36 -24 38 39 35 174 133 180 130 4 -3 58 -71 121
-150z m11495 54 c36 -13 208 -144 226 -173 25 -38 28 -78 8 -134 l-18 -53 21
16 c58 43 126 56 169 33 12 -6 69 -48 127 -93 125 -98 155 -141 154 -225 0
-30 -6 -67 -14 -82 -8 -15 -114 -153 -234 -306 l-220 -280 -87 66 c-49 37 -88
71 -89 76 0 6 9 19 19 30 11 12 21 26 23 33 2 6 -112 102 -252 212 l-255 201
-30 -35 -30 -34 -87 67 c-48 37 -87 69 -88 72 0 3 100 133 223 290 162 207
234 291 263 307 43 25 123 31 171 12z m-640 -771 c40 -40 73 -77 73 -82 0 -6
-12 -23 -27 -38 l-27 -28 50 -53 c352 -365 438 -458 456 -491 28 -54 27 -132
-2 -183 -24 -44 -307 -319 -361 -352 -45 -28 -128 -28 -184 -1 -27 13 -122
105 -285 275 -134 140 -247 255 -250 255 -4 0 -19 -14 -36 -31 l-29 -31 -78
84 -78 83 143 137 c79 75 146 136 149 135 3 -1 141 -141 305 -312 164 -170
303 -311 309 -313 5 -1 34 22 64 52 l54 55 -78 83 c-43 46 -180 189 -306 319
l-228 235 137 137 c75 75 141 137 147 137 5 0 42 -33 82 -72z m-10242 -7 c50
-23 342 -298 373 -351 33 -55 32 -136 -2 -193 -29 -48 -499 -549 -550 -585
-47 -33 -106 -45 -160 -31 -51 13 -98 50 -277 223 -97 94 -129 131 -143 168
-22 57 -16 116 17 170 19 31 439 480 525 561 58 55 147 71 217 38z m919 -292
l45 -32 7 -99 c3 -54 9 -100 13 -102 3 -2 49 7 102 21 l95 25 47 -33 c26 -18
46 -33 44 -35 -1 -1 -66 -34 -144 -73 l-143 -72 -80 57 c-71 51 -80 61 -76 84
3 14 13 85 22 158 10 72 19 132 21 132 1 0 22 -14 47 -31z m-268 -288 c41 -19
484 -328 484 -338 0 -3 -41 -63 -91 -134 -58 -82 -95 -127 -102 -122 -52 30
-197 138 -197 146 0 6 11 25 25 43 l25 32 -70 51 c-38 28 -73 51 -77 51 -5 0
-34 -38 -65 -84 l-58 -84 130 -92 c144 -103 171 -135 178 -215 6 -69 -13 -109
-124 -264 -99 -138 -139 -172 -213 -179 -70 -6 -104 12 -368 200 l-233 165 96
134 c53 74 101 134 107 133 13 -1 213 -140 222 -154 3 -5 -8 -28 -25 -51 -16
-23 -29 -43 -28 -44 2 -1 35 -25 74 -53 l72 -50 67 94 c37 53 64 99 59 103 -5
4 -62 45 -127 90 -64 46 -129 98 -144 117 -28 38 -40 107 -29 168 7 34 131
220 190 285 62 67 145 87 222 52z m8644 -330 c0 -3 -16 -16 -35 -29 l-36 -23
33 -47 c35 -50 339 -485 344 -490 5 -6 124 78 124 88 0 5 -25 44 -54 87 l-55
76 117 83 c64 45 117 81 118 81 0 -1 48 -69 106 -152 57 -82 112 -162 122
-176 l17 -27 -337 -236 c-185 -130 -340 -238 -344 -239 -9 -2 -130 166 -130
180 0 5 14 17 30 26 17 10 30 23 30 28 0 5 -84 129 -186 274 l-186 265 -36
-25 c-42 -29 -36 -34 -114 80 l-56 80 201 141 201 142 63 -91 c35 -50 63 -93
63 -96z m-548 -247 c26 -49 48 -92 48 -96 0 -3 -19 -17 -42 -30 l-43 -23 -10
-143 c-5 -78 -8 -142 -6 -142 3 0 44 20 92 45 48 25 90 45 92 45 3 0 47 -79
98 -175 50 -96 97 -175 103 -175 6 1 22 7 36 15 14 8 28 14 32 15 13 0 110
-192 102 -200 -5 -5 -85 -49 -179 -98 l-169 -90 -59 111 c-33 62 -79 149 -103
194 l-44 82 -78 -41 c-42 -23 -78 -42 -79 -43 -2 -1 42 -86 97 -190 55 -104
100 -192 100 -195 0 -7 -332 -183 -345 -182 -10 0 -105 169 -105 188 0 6 16
19 35 30 19 10 34 21 33 24 -33 75 -304 570 -312 570 -6 -1 -22 -7 -36 -15
-14 -8 -28 -14 -32 -15 -11 0 -109 193 -101 200 13 11 333 180 341 180 4 0 34
-51 67 -112 32 -62 81 -153 108 -203 l48 -90 -4 261 -4 261 126 66 c69 37 131
65 136 63 6 -1 31 -43 57 -92z m-7100 -55 c117 -61 217 -115 221 -119 5 -4
-50 -200 -121 -436 l-130 -429 34 -18 c19 -9 34 -20 34 -23 0 -3 -24 -49 -53
-103 l-52 -98 -160 83 c-88 46 -161 87 -163 92 -1 5 17 65 42 133 25 68 44
124 43 125 -12 8 -164 84 -169 84 -4 0 -26 -28 -49 -62 -23 -35 -58 -84 -77
-111 l-34 -47 -159 82 c-87 45 -159 86 -159 90 0 10 79 169 92 185 8 10 17 9
40 -3 16 -8 35 -13 42 -11 7 3 136 161 286 351 151 190 275 346 277 346 1 0
98 -50 215 -111z m932 -424 c126 -49 243 -98 260 -110 84 -57 97 -157 40 -306
-70 -182 -86 -199 -187 -199 l-58 0 36 -31 c42 -37 65 -77 65 -114 0 -14 -16
-68 -35 -119 -19 -52 -35 -97 -35 -100 0 -3 18 -13 39 -22 l39 -15 -40 -102
c-21 -56 -41 -103 -43 -105 -4 -5 -235 82 -277 104 -65 34 -63 68 17 275 36
92 65 171 65 176 0 11 -163 72 -171 64 -4 -3 -42 -98 -85 -211 -43 -113 -78
-206 -79 -207 -1 -3 -366 137 -373 142 -1 1 16 50 39 108 l41 106 39 -16 c22
-8 42 -13 45 -11 6 7 234 598 234 608 0 4 -18 13 -40 20 -30 10 -39 18 -35 29
3 9 22 57 41 107 l35 92 97 -37 c53 -21 200 -78 326 -126z m3065 -168 l-61
-145 -57 -6 c-31 -3 -76 -7 -100 -8 l-45 -3 -83 135 -83 135 52 6 53 6 76 -74
76 -74 62 85 61 85 53 3 c28 2 53 3 55 2 1 0 -25 -66 -59 -147z m1862 56 c17
-54 34 -103 36 -109 2 -6 -14 -16 -37 -23 -22 -6 -40 -17 -40 -23 0 -6 44
-148 97 -315 79 -245 101 -302 113 -297 8 3 29 8 45 11 l30 5 32 -104 c18 -57
29 -106 25 -109 -9 -9 -453 -151 -457 -147 -2 2 -19 51 -38 110 l-34 106 44
12 c33 10 42 17 38 29 -3 9 -48 148 -100 310 -52 162 -96 296 -98 297 -2 2
-20 -1 -41 -7 -21 -6 -42 -7 -46 -2 -6 6 -58 166 -63 196 -2 7 426 153 455
156 3 1 21 -43 39 -96z m-4208 -112 c92 -21 170 -40 172 -43 3 -3 -17 -103
-45 -223 -27 -120 -48 -220 -46 -222 1 -2 76 86 166 195 l162 199 77 -17 c42
-9 103 -23 136 -30 33 -7 64 -17 69 -21 5 -5 0 -52 -14 -114 -21 -97 -25 -106
-44 -102 -85 20 -74 25 -181 -83 -73 -74 -96 -103 -87 -109 8 -4 52 -16 98
-26 46 -10 86 -21 88 -24 3 -4 -15 -94 -40 -200 -24 -106 -44 -195 -44 -196 0
-2 17 -6 37 -10 21 -4 41 -9 44 -11 5 -3 -38 -212 -45 -221 -3 -3 -387 85
-391 89 -2 2 18 98 45 213 26 116 47 211 47 211 -1 1 -41 10 -89 21 l-87 20
-21 -91 c-11 -50 -33 -143 -47 -206 -14 -63 -28 -118 -32 -122 -5 -5 -136 22
-368 77 -21 5 -21 6 -7 67 9 35 20 85 25 111 l11 48 43 -7 44 -6 10 38 c21 80
131 573 131 588 0 9 -13 18 -35 22 -19 3 -37 9 -39 13 -3 4 7 55 21 114 23 99
26 107 46 102 12 -3 97 -23 190 -44z m3626 -53 c29 -170 32 -160 -39 -172 -34
-6 -36 -8 -88 -137 -29 -72 -52 -133 -50 -135 2 -2 48 4 101 13 53 9 99 14
102 12 2 -3 19 -90 36 -194 18 -105 35 -193 38 -197 3 -3 24 -3 47 1 l41 8 18
-109 c10 -60 15 -111 12 -115 -4 -3 -82 -19 -174 -34 -93 -15 -179 -30 -193
-33 l-26 -5 -34 205 c-19 113 -38 210 -41 216 -6 10 -145 -7 -167 -21 -6 -4 3
-80 26 -213 20 -114 33 -210 30 -213 -3 -3 -91 -20 -196 -38 l-191 -33 -5 25
c-3 14 -10 55 -16 91 -6 36 -13 75 -15 87 -5 20 0 24 35 29 22 4 42 9 44 13 3
5 -33 229 -90 550 l-16 93 -44 -5 c-42 -4 -44 -4 -49 27 -18 97 -33 191 -32
192 10 5 389 65 392 62 2 -2 21 -104 41 -226 21 -122 41 -219 45 -215 3 5 37
110 75 236 37 125 71 233 75 239 7 10 219 54 275 57 19 1 23 -7 33 -61z
m-1075 -220 c4 -57 9 -128 13 -159 l5 -57 -38 -6 c-22 -3 -80 -8 -130 -12
l-91 -6 -7 49 -6 49 -68 -3 c-120 -7 -113 -1 -107 -96 9 -121 12 -130 38 -124
41 10 284 20 321 13 47 -9 104 -59 127 -112 26 -59 48 -355 30 -414 -16 -54
-74 -117 -120 -130 -20 -6 -167 -21 -328 -33 l-291 -23 -6 46 c-5 47 -20 274
-18 287 1 7 271 33 280 27 1 0 5 -24 9 -53 l6 -51 51 0 c28 0 68 3 89 7 l38 6
-7 106 c-3 58 -10 110 -14 114 -4 5 -76 3 -159 -3 -179 -15 -220 -7 -276 48
-54 54 -77 168 -77 380 0 109 53 185 144 207 31 8 444 42 529 44 l56 1 7 -102z
m-1251 76 c117 -9 213 -17 214 -18 1 0 22 -185 47 -411 60 -529 52 -485 84
-485 49 0 51 -7 42 -115 -5 -55 -9 -105 -10 -110 0 -7 -60 -6 -182 3 -101 8
-184 15 -186 17 -1 1 -6 61 -10 133 -5 73 -11 134 -13 137 -3 3 -48 6 -99 8
l-94 2 -26 -130 -26 -130 -54 3 c-102 6 -304 23 -308 27 -2 2 -1 54 3 115 l8
112 42 -5 43 -6 21 77 c12 42 65 238 118 435 l96 357 40 0 c21 0 134 -7 250
-16z"/>
<path d="M8703 17401 c-39 -3 -74 -8 -77 -11 -5 -6 38 -626 50 -719 l6 -44 91
7 c50 4 92 8 93 9 0 1 -12 164 -27 362 -15 198 -28 370 -28 383 -1 15 -7 21
-18 20 -10 -1 -50 -4 -90 -7z"/>
<path d="M11626 16928 c-60 -130 -109 -240 -108 -245 1 -9 153 -55 161 -48 6
7 62 495 59 515 -2 8 -52 -92 -112 -222z"/>
<path d="M5692 16580 c3 -8 38 -123 78 -255 40 -132 75 -242 77 -245 2 -2 38
13 79 33 50 25 74 42 71 51 -6 15 -284 406 -300 421 -7 7 -8 5 -5 -5z"/>
<path d="M13939 15938 c-36 -51 -69 -98 -73 -105 -4 -8 20 -32 68 -68 41 -30
79 -55 83 -55 7 0 120 153 146 196 4 7 -26 35 -72 68 -43 31 -80 56 -82 56 -3
0 -34 -42 -70 -92z"/>
<path d="M15809 14217 c-36 -29 -78 -62 -93 -74 l-27 -22 61 -78 c34 -43 65
-79 68 -80 4 -2 39 22 77 53 39 31 80 64 93 75 l23 18 -61 78 c-34 43 -65 79
-68 80 -4 1 -37 -21 -73 -50z"/>
<path d="M15395 13889 c-55 -45 -101 -85 -103 -90 -4 -9 104 -152 119 -157 9
-4 219 158 219 169 0 10 -120 159 -128 159 -4 -1 -52 -37 -107 -81z"/>
<path d="M2999 14263 c-29 -38 -56 -73 -61 -79 -5 -7 95 -92 287 -243 162
-127 299 -231 304 -231 8 0 121 142 121 153 0 6 -586 467 -594 467 -2 0 -28
-30 -57 -67z"/>
<path d="M10159 7694 c-396 -71 -742 -331 -924 -693 -252 -502 -142 -1120 269
-1509 177 -167 384 -276 626 -328 119 -26 381 -26 500 0 514 112 894 495 1006
1016 25 118 26 372 1 490 -38 179 -95 317 -192 465 -196 298 -501 499 -852
560 -106 19 -330 18 -434 -1z"/>
<path d="M15172 4741 c-29 -38 -52 -71 -52 -74 0 -7 150 -127 159 -127 6 0 29
28 85 102 l27 36 -73 58 c-40 31 -78 61 -83 65 -7 5 -31 -19 -63 -60z"/>
<path d="M15492 4480 l-52 -69 96 -76 c53 -43 99 -73 103 -68 25 29 101 130
101 135 0 6 -184 148 -191 148 -2 -1 -28 -32 -57 -70z"/>
<path d="M4224 3808 c-121 -127 -220 -236 -222 -243 -2 -7 23 -35 54 -61 l57
-49 129 135 c71 74 173 181 225 238 l96 103 -44 45 c-24 25 -51 50 -60 54 -13
8 -61 -37 -235 -222z"/>
<path d="M5893 2768 c-71 -95 -132 -178 -136 -185 -5 -7 16 -24 60 -47 37 -20
67 -35 68 -33 7 8 144 431 141 434 -2 2 -61 -74 -133 -169z"/>
<path d="M6875 2390 c-22 -60 -34 -105 -29 -110 11 -11 145 -62 150 -57 11 10
74 191 71 201 -3 6 -35 23 -73 36 -37 14 -71 26 -75 28 -3 1 -23 -43 -44 -98z"/>
<path d="M8950 1860 c-29 -121 -51 -222 -48 -225 9 -9 148 -18 148 -9 -1 33
-40 447 -43 450 -2 2 -27 -95 -57 -216z"/>
</g>
</svg>
